<svg fill="none" version="1.1" viewBox="0 0 884 994" xmlns="http://www.w3.org/2000/svg">
	<g opacity=".7" stroke-width="1">
		<ellipse transform="rotate(140 442 496.74)" cx="442" cy="496.74" rx="62.62" ry="516.62" display="none" opacity=".016949" stroke="url(#gd)" />
		<ellipse transform="rotate(150 442 496.74)" cx="442" cy="496.74" rx="62.62" ry="508.79" opacity=".033898" stroke="url(#gd)" />
		<ellipse transform="rotate(160 442 496.74)" cx="442" cy="496.74" rx="62.62" ry="500.96" opacity=".050848" stroke="url(#gd)" />
		<ellipse transform="rotate(170 442 496.74)" cx="442" cy="496.74" rx="62.62" ry="493.14" opacity=".067797" stroke="url(#gd)" />
		<ellipse transform="rotate(180 442 496.74)" cx="442" cy="496.74" rx="62.62" ry="485.31" opacity=".084746" stroke="url(#gd)" />
		<ellipse transform="rotate(190 442 496.74)" cx="442" cy="496.74" rx="62.62" ry="477.48" opacity=".1017" stroke="url(#gd)" />
		<ellipse transform="rotate(200 441.99 496.74)" cx="441.99" cy="496.74" rx="62.62" ry="469.65" opacity=".11864" stroke="url(#gd)" />
		<ellipse transform="rotate(210 442 496.74)" cx="442" cy="496.74" rx="62.62" ry="461.83" opacity=".13559" stroke="url(#gd)" />
		<ellipse transform="rotate(220 441.99 496.74)" cx="441.99" cy="496.74" rx="62.62" ry="454" opacity=".15254" stroke="url(#gd)" />
		<ellipse transform="rotate(230 441.99 496.74)" cx="441.99" cy="496.74" rx="62.62" ry="446.17" opacity=".16949" stroke="url(#gd)" />
		<ellipse transform="rotate(240 441.99 496.74)" cx="441.99" cy="496.74" rx="62.62" ry="438.34" opacity=".18644" stroke="url(#gd)" />
		<ellipse transform="rotate(250 441.99 496.74)" cx="441.99" cy="496.74" rx="62.62" ry="430.52" opacity=".20339" stroke="url(#gd)" />
		<ellipse transform="rotate(260 441.99 496.74)" cx="441.99" cy="496.74" rx="62.62" ry="422.69" opacity=".22034" stroke="url(#gd)" />
		<ellipse transform="rotate(-90 441.99 496.74)" cx="441.99" cy="496.74" rx="62.62" ry="414.86" opacity=".23729" stroke="url(#gd)" />
		<ellipse transform="rotate(-80 441.99 496.74)" cx="441.99" cy="496.74" rx="62.62" ry="407.03" opacity=".25424" stroke="url(#gd)" />
		<ellipse transform="rotate(-70 441.99 496.74)" cx="441.99" cy="496.74" rx="62.62" ry="399.2" opacity=".27119" stroke="url(#gd)" />
		<ellipse transform="rotate(-60 441.99 496.74)" cx="441.99" cy="496.74" rx="62.62" ry="391.38" opacity=".28814" stroke="url(#gd)" />
		<ellipse transform="rotate(-50 441.99 496.74)" cx="441.99" cy="496.74" rx="62.62" ry="383.55" opacity=".30508" stroke="url(#gd)" />
		<ellipse transform="rotate(-40 441.99 496.74)" cx="441.99" cy="496.74" rx="62.62" ry="375.72" opacity=".32203" stroke="url(#gd)" />
		<ellipse transform="rotate(-30 441.99 496.74)" cx="441.99" cy="496.74" rx="62.62" ry="367.89" opacity=".33898" stroke="url(#gd)" />
		<ellipse transform="rotate(-20 441.99 496.74)" cx="441.99" cy="496.74" rx="62.62" ry="360.07" opacity=".35593" stroke="url(#gd)" />
		<ellipse transform="rotate(-10 442 496.74)" cx="442" cy="496.74" rx="62.62" ry="352.24" opacity=".37288" stroke="url(#gd)" />
		<ellipse cx="441.99" cy="496.74" rx="62.62" ry="344.41" opacity=".38983" stroke="url(#gd)" />
		<ellipse transform="rotate(10 442 496.74)" cx="442" cy="496.74" rx="62.62" ry="336.58" opacity=".40678" stroke="url(#gd)" />
		<ellipse transform="rotate(20 442 496.74)" cx="442" cy="496.74" rx="62.62" ry="328.76" opacity=".42373" stroke="url(#gd)" />
		<ellipse transform="rotate(30 442 496.74)" cx="442" cy="496.74" rx="62.62" ry="320.93" opacity=".44068" stroke="url(#gd)" />
		<ellipse transform="rotate(40 442 496.74)" cx="442" cy="496.74" rx="62.62" ry="313.1" opacity=".45763" stroke="url(#gd)" />
		<ellipse transform="rotate(50 442 496.74)" cx="442" cy="496.74" rx="62.62" ry="305.27" opacity=".47458" stroke="url(#gd)" />
		<ellipse transform="rotate(60 442 496.74)" cx="442" cy="496.74" rx="62.62" ry="297.45" opacity=".49152" stroke="url(#gd)" />
		<ellipse transform="rotate(70 442 496.74)" cx="442" cy="496.74" rx="62.62" ry="289.62" opacity=".50848" stroke="url(#gd)" />
		<ellipse transform="rotate(80 442 496.74)" cx="442" cy="496.74" rx="62.62" ry="281.79" opacity=".52542" stroke="url(#gd)" />
		<ellipse transform="rotate(90 442 496.74)" cx="442" cy="496.74" rx="62.62" ry="273.96" opacity=".54237" stroke="url(#gd)" />
		<ellipse transform="rotate(100 442 496.74)" cx="442" cy="496.74" rx="62.62" ry="266.14" opacity=".55932" stroke="url(#gd)" />
		<ellipse transform="rotate(110 442 496.74)" cx="442" cy="496.74" rx="62.62" ry="258.31" opacity=".57627" stroke="url(#gd)" />
		<ellipse transform="rotate(120 442 496.74)" cx="442" cy="496.74" rx="62.62" ry="250.48" opacity=".59322" stroke="url(#gd)" />
		<ellipse transform="rotate(130 442 496.74)" cx="442" cy="496.74" rx="62.62" ry="242.65" opacity=".61017" stroke="url(#gd)" />
		<ellipse transform="rotate(140 442 496.74)" cx="442" cy="496.74" rx="62.62" ry="234.83" opacity=".62712" stroke="url(#gd)" />
		<ellipse transform="rotate(150 442 496.74)" cx="442" cy="496.74" rx="62.62" ry="227" opacity=".64407" stroke="url(#gd)" />
		<ellipse transform="rotate(160 442 496.74)" cx="442" cy="496.74" rx="62.62" ry="219.17" opacity=".66102" stroke="url(#gd)" />
		<ellipse transform="rotate(170 442 496.74)" cx="442" cy="496.74" rx="62.62" ry="211.34" opacity=".67797" stroke="url(#gd)" />
		<ellipse transform="rotate(180 442 496.74)" cx="442" cy="496.74" rx="62.62" ry="203.52" opacity=".69492" stroke="url(#gd)" />
		<ellipse transform="rotate(190 442 496.74)" cx="442" cy="496.74" rx="62.62" ry="195.69" opacity=".71186" stroke="url(#gd)" />
		<ellipse transform="rotate(200 442 496.74)" cx="442" cy="496.74" rx="62.62" ry="187.86" opacity=".72881" stroke="url(#gd)" />
		<ellipse transform="rotate(210 442 496.74)" cx="442" cy="496.74" rx="62.62" ry="180.03" opacity=".74576" stroke="url(#gd)" />
		<ellipse transform="rotate(220 441.99 496.74)" cx="441.99" cy="496.74" rx="62.62" ry="172.21" opacity=".76271" stroke="url(#gd)" />
		<ellipse transform="rotate(230 441.99 496.74)" cx="441.99" cy="496.74" rx="62.62" ry="164.38" opacity=".77966" stroke="url(#gd)" />
		<ellipse transform="rotate(240 442 496.74)" cx="442" cy="496.74" rx="62.62" ry="156.55" opacity=".79661" stroke="url(#gd)" />
		<ellipse transform="rotate(250 442 496.74)" cx="442" cy="496.74" rx="62.62" ry="148.72" opacity=".81356" stroke="url(#gd)" />
		<ellipse transform="rotate(260 442 496.74)" cx="442" cy="496.74" rx="62.62" ry="140.9" opacity=".83051" stroke="url(#gd)" />
		<ellipse transform="rotate(-90 442 496.74)" cx="442" cy="496.74" rx="62.62" ry="133.07" opacity=".84746" stroke="url(#gd)" />
		<ellipse transform="rotate(-80 442 496.74)" cx="442" cy="496.74" rx="62.62" ry="125.24" opacity=".86441" stroke="url(#gd)" />
		<ellipse transform="rotate(-70 442 496.74)" cx="442" cy="496.74" rx="62.62" ry="117.41" opacity=".88136" stroke="url(#gd)" />
		<ellipse transform="rotate(-60 441.99 496.74)" cx="441.99" cy="496.74" rx="62.62" ry="109.59" opacity=".8983" stroke="url(#gd)" />
		<ellipse transform="rotate(-50 442 496.74)" cx="442" cy="496.74" rx="62.62" ry="101.76" opacity=".91525" stroke="url(#gd)" />
		<ellipse transform="rotate(-40 442 496.74)" cx="442" cy="496.74" rx="62.62" ry="93.93" opacity=".9322" stroke="url(#gd)" />
		<ellipse transform="rotate(-30 442 496.74)" cx="442" cy="496.74" rx="62.62" ry="86.103" opacity=".94915" stroke="url(#gd)" />
		<ellipse transform="rotate(-20 442 496.74)" cx="442" cy="496.74" rx="62.62" ry="78.275" opacity=".9661" stroke="url(#gd)" />
		<ellipse transform="rotate(-10 441.99 496.74)" cx="441.99" cy="496.74" rx="62.62" ry="70.448" opacity=".98305" stroke="url(#gd)" />
		<circle cx="441.99" cy="496.74" r="62.62" stroke="url(#gd)" />
	</g>
	<defs>
		<linearGradient id="gd" x1="442" x2="442" y1="-19.875" y2="1052.1" gradientUnits="userSpaceOnUse">
			<stop stop-color="#FC8926" offset="0" />
			<stop stop-color="#F81C9D" offset="1" />
		</linearGradient>
	</defs>
</svg>
