<svg width="31" height="31" viewBox="0 0 31 31" fill="none" xmlns="http://www.w3.org/2000/svg">
	<path d="M1.61637 0.822144C1.02529 0.822144 0.581985 1.42126 0.680492 2.02037L4.6703 29.0349C4.76881 29.7431 5.31065 30.2332 5.95098 30.2332H25.2597C25.7031 30.2332 26.0971 29.852 26.1956 29.3618L30.2346 2.07484C30.3332 1.42126 29.8898 0.876618 29.2988 0.876618L1.61637 0.822144ZM18.5608 20.3206H12.4036L10.7781 10.6803H20.0877L18.5608 20.3206Z" fill="#2684FF" />
	<path d="M29.3653 10.3096H20.4617L18.9778 20.16H12.7947L5.52344 29.8992C5.52344 29.8992 5.86968 30.2332 6.36432 30.2332H25.7544C26.1996 30.2332 26.5954 29.8435 26.6942 29.3426L29.3653 10.3096Z" fill="url(#paint0_linear_186_2397)" />
	<defs>
		<linearGradient id="paint0_linear_186_2397" x1="31.4481" y1="13.0853" x2="15.4188" y2="24.2065" gradientUnits="userSpaceOnUse">
			<stop offset="0.176" stop-color="#0052CC" />
			<stop offset="1" stop-color="#2684FF" />
		</linearGradient>
	</defs>
</svg>
