<svg width="31" height="30" viewBox="0 0 31 30" fill="none" xmlns="http://www.w3.org/2000/svg">
	<path d="M15.5867 0.413615C15.5867 0.413615 24.305 0.0260249 28.9273 8.70758H14.8449C14.8449 8.70758 12.1873 8.62273 9.91707 11.8168C9.26493 13.1574 8.56395 14.5384 9.35059 17.26C8.21739 15.3581 3.33447 6.93499 3.33447 6.93499C3.33447 6.93499 6.77862 0.756827 15.5866 0.413615H15.5867Z" fill="#EF3F36" />
	<path d="M28.475 22.4529C28.475 22.4529 24.452 30.129 14.5557 29.7494C15.7784 27.6537 21.5988 17.6679 21.5988 17.6679C21.5988 17.6679 23.0051 15.4308 21.3462 11.8855C20.5023 10.654 19.6423 9.36587 16.8708 8.67933C19.1004 8.65926 28.903 8.67933 28.903 8.67933C28.903 8.67933 32.5753 14.7242 28.475 22.4529Z" fill="#FCD900" />
	<path d="M2.75966 22.5134C2.75966 22.5134 -1.93991 15.2248 3.34246 6.92285C4.56119 9.01859 10.3816 19.0044 10.3816 19.0044C10.3816 19.0044 11.637 21.3303 15.5621 21.6774C17.058 21.5685 18.615 21.4756 20.6042 19.4445C19.5075 21.3667 14.5878 29.7655 14.5878 29.7655C14.5878 29.7655 7.46317 29.8948 2.75954 22.5134H2.75966Z" fill="#61BC5B" />
	<path d="M14.5513 29.822L16.5321 21.6331C16.5321 21.6331 18.7087 21.4634 20.5347 19.4808C19.4015 21.4555 14.5513 29.822 14.5513 29.822Z" fill="#5AB055" />
	<path d="M8.95117 15.2087C8.95117 11.5988 11.9063 8.67126 15.5501 8.67126C19.1939 8.67126 22.149 11.5988 22.149 15.2087C22.149 18.8187 19.1939 21.7461 15.5501 21.7461C11.9063 21.7421 8.95117 18.8187 8.95117 15.2087Z" fill="white" />
	<path d="M10.0552 15.2086C10.0552 12.2045 12.513 9.7655 15.5496 9.7655C18.582 9.7655 21.0439 12.2004 21.0439 15.2086C21.0439 18.2129 18.5862 20.6519 15.5496 20.6519C12.5171 20.6519 10.0552 18.2129 10.0552 15.2086Z" fill="url(#paint0_linear_186_2404)" />
	<path d="M28.8983 8.68338L20.7423 11.0536C20.7423 11.0536 19.5114 9.26477 16.8662 8.68338C19.161 8.67123 28.8983 8.68338 28.8983 8.68338Z" fill="#EACA05" />
	<path d="M9.19166 16.9611C8.0462 14.9946 3.33447 6.93494 3.33447 6.93494L9.37501 12.8545C9.37501 12.8545 8.7554 14.1184 8.98783 15.9274L9.19155 16.9611H9.19166Z" fill="#DF3A32" />
	<defs>
		<linearGradient id="paint0_linear_186_2404" x1="15.5493" y1="9.84236" x2="15.5493" y2="20.3242" gradientUnits="userSpaceOnUse">
			<stop stop-color="#86BBE5" />
			<stop offset="1" stop-color="#1072BA" />
		</linearGradient>
	</defs>
</svg>
