<svg width="31" height="30" viewBox="0 0 31 30" xmlns="http://www.w3.org/2000/svg">
	<path fill-rule="evenodd" clip-rule="evenodd" d="M15.4576 0C7.28563 0 0.666748 6.74718 0.666748 15.0775C0.666748 21.7493 4.90062 27.3845 10.78 29.3823C11.5195 29.5142 11.7968 29.0619 11.7968 28.6661C11.7968 28.308 11.7783 27.1206 11.7783 25.8579C8.06215 26.5552 7.10075 24.9344 6.80493 24.0863C6.63854 23.6528 5.91748 22.3147 5.28888 21.9566C4.7712 21.6739 4.03166 20.9766 5.27039 20.9577C6.43516 20.9389 7.26715 22.0508 7.54447 22.5031C8.87565 24.7836 11.0018 24.1428 11.8523 23.747C11.9817 22.767 12.37 22.1074 12.7952 21.7304C9.50426 21.3535 6.06539 20.0531 6.06539 14.2859C6.06539 12.6462 6.63854 11.2893 7.58145 10.2338C7.43354 9.85691 6.91586 8.31146 7.72936 6.23831C7.72936 6.23831 8.96809 5.84253 11.7968 7.78375C12.9801 7.44451 14.2373 7.27489 15.4945 7.27489C16.7518 7.27489 18.009 7.44451 19.1922 7.78375C22.021 5.82368 23.2597 6.23831 23.2597 6.23831C24.0732 8.31146 23.5555 9.85691 23.4076 10.2338C24.3505 11.2893 24.9237 12.6274 24.9237 14.2859C24.9237 20.0719 21.4663 21.3535 18.1754 21.7304C18.7115 22.2016 19.1737 23.1062 19.1737 24.5198C19.1737 26.5364 19.1553 28.1572 19.1553 28.6661C19.1553 29.0619 19.4326 29.533 20.1721 29.3823C23.1083 28.3717 25.6597 26.448 27.4673 23.8819C29.2748 21.3159 30.2475 18.2366 30.2484 15.0775C30.2484 6.74718 23.6295 0 15.4576 0Z" fill="url(#paint0_linear_507_150)" />
	<defs>
		<linearGradient id="paint0_linear_507_150" x1="15.4576" y1="0" x2="15.4576" y2="29.4111" gradientUnits="userSpaceOnUse">
			<stop stop-color="#383838" stop-opacity="0.67" />
			<stop offset="1" stop-color="#383838" />
		</linearGradient>
	</defs>
</svg>
