<svg width="31" height="30" viewBox="0 0 31 30" fill="none" xmlns="http://www.w3.org/2000/svg">
	<path d="M15.4564 29.8221L20.9061 11.7269H10.0146L15.4564 29.8221Z" fill="#E24329" />
	<path d="M2.38159 11.7271L0.722038 17.2246C0.571862 17.7238 0.734041 18.2748 1.13042 18.586L15.4566 29.8221L2.38159 11.7271Z" fill="#FCA326" />
	<path d="M2.38159 11.727H10.0148L6.72967 0.829171C6.56154 0.271624 5.8288 0.271624 5.65461 0.829171L2.38159 11.727Z" fill="#E24329" />
	<path d="M28.5393 11.7271L30.1929 17.2246C30.343 17.7238 30.1809 18.2748 29.7845 18.586L15.4563 29.8221L28.5393 11.7271Z" fill="#FCA326" />
	<path d="M28.5394 11.727H20.9062L24.1853 0.829171C24.3535 0.271624 25.0862 0.271624 25.2604 0.829171L28.5394 11.727Z" fill="#E24329" />
	<path d="M15.4563 29.8221L20.906 11.7271H28.5393L15.4563 29.8221Z" fill="#FC6D26" />
	<path d="M15.4565 29.8221L2.38159 11.7271H10.0148L15.4565 29.8221Z" fill="#FC6D26" />
</svg>
