<svg width="31" height="31" viewBox="0 0 31 31" fill="none" xmlns="http://www.w3.org/2000/svg">
	<path fill-rule="evenodd" clip-rule="evenodd" d="M21.8155 30.1075C22.2812 30.2889 22.8121 30.2773 23.2821 30.0512L29.3687 27.1224C30.0082 26.8147 30.415 26.1674 30.415 25.4573V5.59836C30.415 4.88825 30.0083 4.24096 29.3687 3.9332L23.2821 1.00434C22.6653 0.707559 21.9435 0.780252 21.4021 1.1738C21.3248 1.23001 21.2511 1.29278 21.182 1.36196L9.52993 11.9924L4.45451 8.13972C3.98203 7.78109 3.32118 7.81047 2.88237 8.20964L1.25452 9.69041C0.717773 10.1786 0.717158 11.0231 1.25319 11.5121L5.65476 15.5278L1.25319 19.5434C0.717158 20.0324 0.717773 20.8769 1.25452 21.3651L2.88237 22.8459C3.32118 23.2451 3.98203 23.2744 4.45451 22.9158L9.52993 19.0631L21.182 29.6935C21.3663 29.878 21.5828 30.0169 21.8155 30.1075ZM23.0286 8.81651L14.1873 15.5278L23.0286 22.239V8.81651Z" fill="white" />
	<path d="M29.3687 3.938L23.2773 1.00511C22.5723 0.665633 21.7296 0.808834 21.1763 1.36218L1.23537 19.5436C0.699009 20.0326 0.699625 20.8771 1.2367 21.3653L2.86554 22.8461C3.30462 23.2453 3.96588 23.2747 4.43863 22.916L28.4521 4.69887C29.2578 4.08771 30.4149 4.6623 30.4149 5.67352V5.6028C30.4149 4.89299 30.0083 4.24593 29.3687 3.938Z" fill="#0065A9" />
	<path d="M29.3687 27.1177L23.2773 30.0506C22.5723 30.3902 21.7296 30.2469 21.1763 29.6936L1.23537 11.5121C0.699009 11.0231 0.699625 10.1786 1.2367 9.69041L2.86554 8.20963C3.30462 7.81047 3.96588 7.78108 4.43863 8.13972L28.4521 26.3569C29.2578 26.968 30.4149 26.3934 30.4149 25.3822V25.453C30.4149 26.1628 30.0083 26.8098 29.3687 27.1177Z" fill="#007ACC" />
	<path d="M23.2776 30.051C22.5723 30.3903 21.7297 30.2468 21.1763 29.6934C21.8581 30.3753 23.024 29.8924 23.024 28.9281V2.12718C23.024 1.1629 21.8581 0.679986 21.1763 1.36183C21.7297 0.808441 22.5723 0.665039 23.2776 1.00422L29.3679 3.93308C30.0079 4.24084 30.4148 4.88813 30.4148 5.59824V25.4571C30.4148 26.1672 30.0079 26.8145 29.3679 27.1223L23.2776 30.051Z" fill="#1F9CF0" />
	<path style="mix-blend-mode:overlay" opacity="0.25" fill-rule="evenodd" clip-rule="evenodd" d="M21.7975 30.1074C22.2631 30.2888 22.794 30.2772 23.264 30.0511L29.3506 27.1223C29.9902 26.8146 30.3969 26.1673 30.3969 25.4571V5.59826C30.3969 4.88811 29.9902 4.24082 29.3506 3.93307L23.264 1.00422C22.6472 0.707437 21.9254 0.78013 21.3841 1.17367C21.3067 1.22989 21.2331 1.29266 21.1639 1.36183L9.51186 11.9923L4.43644 8.13961C3.96399 7.78095 3.30311 7.81037 2.8643 8.2095L1.23645 9.69027C0.699706 10.1785 0.699091 11.023 1.23512 11.512L5.63669 15.5276L1.23512 19.5433C0.699091 20.0323 0.699706 20.8767 1.23645 21.365L2.8643 22.8458C3.30311 23.2449 3.96399 23.2743 4.43644 22.9157L9.51186 19.063L21.1639 29.6934C21.3483 29.8778 21.5647 30.0168 21.7975 30.1074ZM23.0105 8.81641L14.1693 15.5276L23.0105 22.2389V8.81641Z" fill="url(#paint0_linear_186_2407)" />
	<defs>
		<linearGradient id="paint0_linear_186_2407" x1="15.6152" y1="0.822143" x2="15.6152" y2="30.2331" gradientUnits="userSpaceOnUse">
			<stop stop-color="white" />
			<stop offset="1" stop-color="white" stop-opacity="0" />
		</linearGradient>
	</defs>
</svg>
